<svg width="886" height="865" viewBox="0 0 886 865" fill="none" xmlns="http://www.w3.org/2000/svg">
<g filter="url(#filter0_f_1474_26212)">
<path fill-rule="evenodd" clip-rule="evenodd" d="M454.288 276.628C486.528 279.558 522.438 265.597 549.693 281.423C576.927 297.236 580.579 331.186 594.043 357.776C606.241 381.868 617.951 404.976 625.241 430.635C634.523 463.3 665.776 502.355 642.645 528.831C618.015 557.022 563.194 529.719 526.529 543.62C496.619 554.959 485.291 591.623 454.288 600.241C420.637 609.595 383.544 604.189 350.818 592.461C315.449 579.788 271.52 564.293 261.482 531.151C250.89 496.182 300.504 466.869 301.805 430.635C303.038 396.278 259.542 367.207 268.568 333.813C277.491 300.798 311.489 273.978 347.111 263.01C381.849 252.313 417.769 273.308 454.288 276.628Z" fill="url(#paint0_linear_1474_26212)"/>
</g>
<defs>
<filter id="filter0_f_1474_26212" x="0" y="0" width="911" height="865" filterUnits="userSpaceOnUse" color-interpolation-filters="sRGB">
<feFlood flood-opacity="0" result="BackgroundImageFix"/>
<feBlend mode="normal" in="SourceGraphic" in2="BackgroundImageFix" result="shape"/>
<feGaussianBlur stdDeviation="130" result="effect1_foregroundBlur_1474_26212"/>
</filter>
<linearGradient id="paint0_linear_1474_26212" x1="260" y1="570.5" x2="677.18" y2="389.513" gradientUnits="userSpaceOnUse">
<stop stop-color="#FBEC78"/>
<stop offset="1" stop-color="#F4D19A"/>
</linearGradient>
</defs>
</svg>
