<svg width="20" height="20" viewBox="0 0 20 20" fill="none" xmlns="http://www.w3.org/2000/svg">
<path d="M16.6667 2.5H13.3333C12.8725 2.5 12.5 2.87333 12.5 3.33333C12.5 3.79333 12.8725 4.16667 13.3333 4.16667H14.8575L11.9108 7.11333C11.585 7.43917 11.585 7.96583 11.9108 8.29167C12.0733 8.45417 12.2867 8.53583 12.5 8.53583C12.7133 8.53583 12.9267 8.45417 13.0892 8.29167L15.8333 5.5475V6.66667C15.8333 7.12667 16.2058 7.5 16.6667 7.5C17.1275 7.5 17.5 7.12667 17.5 6.66667V3.33333C17.5 2.87333 17.1275 2.5 16.6667 2.5Z" fill="#E1E3E6"/>
<path d="M16.6667 12.5C16.2058 12.5 15.8333 12.8733 15.8333 13.3333V14.655L13.0892 11.9108C12.7633 11.585 12.2367 11.585 11.9108 11.9108C11.585 12.2367 11.585 12.7633 11.9108 13.0892L14.655 15.8333H13.3333C12.8725 15.8333 12.5 16.2067 12.5 16.6667C12.5 17.1267 12.8725 17.5 13.3333 17.5H16.6667C17.1275 17.5 17.5 17.1267 17.5 16.6667V13.3333C17.5 12.8733 17.1275 12.5 16.6667 12.5Z" fill="#E1E3E6"/>
<path d="M5.345 4.16667H6.66667C7.1275 4.16667 7.5 3.79333 7.5 3.33333C7.5 2.87333 7.1275 2.5 6.66667 2.5H3.33333C3.225 2.5 3.11667 2.5225 3.015 2.56417C2.81083 2.64833 2.64833 2.81083 2.56417 3.015C2.5225 3.11667 2.5 3.225 2.5 3.33333V6.66667C2.5 7.12667 2.8725 7.5 3.33333 7.5C3.79417 7.5 4.16667 7.12667 4.16667 6.66667V5.345L7.1125 8.29167C7.275 8.45417 7.48833 8.53583 7.70167 8.53583C7.915 8.53583 8.12833 8.45417 8.29083 8.29167C8.61667 7.96583 8.61667 7.43917 8.29083 7.11333L5.345 4.16667Z" fill="#E1E3E6"/>
<path d="M7.1125 11.9108L4.16667 14.8567V13.3333C4.16667 12.8733 3.79417 12.5 3.33333 12.5C2.8725 12.5 2.5 12.8733 2.5 13.3333V16.6667C2.5 17.1267 2.8725 17.5 3.33333 17.5H6.66667C7.1275 17.5 7.5 17.1267 7.5 16.6667C7.5 16.2067 7.1275 15.8333 6.66667 15.8333H5.54667L8.29083 13.0892C8.61667 12.7633 8.61667 12.2367 8.29083 11.9108C7.965 11.585 7.43833 11.585 7.1125 11.9108Z" fill="#E1E3E6"/>
</svg>
