<svg width="800" height="800" viewBox="0 0 800 800" fill="none" xmlns="http://www.w3.org/2000/svg">
<path d="M766.667 133.334C766.667 78.1056 721.897 33.334 666.667 33.334H533.333C514.923 33.334 500 48.258 500 66.6673C500 85.0766 514.923 100.001 533.333 100.001H666.667C685.077 100.001 700 114.925 700 133.334V266.667C700 285.077 714.923 300.001 733.333 300.001C751.743 300.001 766.667 285.077 766.667 266.667V133.334Z" fill="white"/>
<path d="M766.667 533.333C766.667 514.923 751.743 500 733.333 500C714.923 500 700 514.923 700 533.333V666.667C700 685.077 685.077 700 666.667 700H533.333C514.923 700 500 714.923 500 733.333C500 751.743 514.923 766.667 533.333 766.667H666.667C721.897 766.667 766.667 721.897 766.667 666.667V533.333Z" fill="white"/>
<path d="M133.334 700H266.667C285.077 700 300.001 714.923 300.001 733.333C300.001 751.743 285.077 766.667 266.667 766.667H133.334C78.1056 766.667 33.334 721.897 33.334 666.667V533.333C33.334 514.923 48.258 500 66.6673 500C85.0766 500 100.001 514.923 100.001 533.333V666.667C100.001 685.077 114.925 700 133.334 700Z" fill="white"/>
<path d="M33.334 266.667C33.334 285.077 48.258 300.001 66.6673 300.001C85.0766 300.001 100.001 285.077 100.001 266.667V133.334C100.001 114.925 114.925 100.001 133.334 100.001H266.667C285.077 100.001 300.001 85.0766 300.001 66.6673C300.001 48.258 285.077 33.334 266.667 33.334H133.334C78.1056 33.334 33.334 78.1056 33.334 133.334V266.667Z" fill="white"/>
</svg>
