<svg width="800" height="800" viewBox="0 0 800 800" fill="none" xmlns="http://www.w3.org/2000/svg">
<path d="M233.334 533.333H66.6673C48.258 533.333 33.334 518.409 33.334 499.999C33.334 481.589 48.258 466.666 66.6673 466.666H233.334C288.562 466.666 333.334 511.436 333.334 566.666V733.333C333.334 751.743 318.41 766.666 300.001 766.666C281.591 766.666 266.667 751.743 266.667 733.333V566.666C266.667 548.256 251.743 533.333 233.334 533.333Z" fill="white"/>
<path d="M333.334 66.6673C333.334 48.258 318.41 33.334 300.001 33.334C281.591 33.334 266.667 48.258 266.667 66.6673V233.334C266.667 251.743 251.743 266.667 233.334 266.667H66.6673C48.258 266.667 33.334 281.591 33.334 300.001C33.334 318.41 48.258 333.334 66.6673 333.334H233.334C288.562 333.334 333.334 288.562 333.334 233.334V66.6673Z" fill="white"/>
<path d="M466.666 733.333C466.666 751.743 481.589 766.666 499.999 766.666C518.409 766.666 533.333 751.743 533.333 733.333V566.666C533.333 548.256 548.256 533.333 566.666 533.333H733.333C751.743 533.333 766.666 518.409 766.666 499.999C766.666 481.589 751.743 466.666 733.333 466.666H566.666C511.436 466.666 466.666 511.436 466.666 566.666V733.333Z" fill="white"/>
<path d="M466.666 233.334C466.666 288.563 511.436 333.334 566.666 333.334H733.333C751.743 333.334 766.666 318.41 766.666 300.001C766.666 281.591 751.743 266.667 733.333 266.667H566.666C548.256 266.667 533.333 251.744 533.333 233.334V66.6673C533.333 48.258 518.409 33.334 499.999 33.334C481.589 33.334 466.666 48.258 466.666 66.6673V233.334Z" fill="white"/>
</svg>
