<svg width="33" height="32" viewBox="0 0 33 32" fill="none" xmlns="http://www.w3.org/2000/svg">
<path fill-rule="evenodd" clip-rule="evenodd" d="M18.75 7H14.75C13.6454 7 12.75 7.89543 12.75 9H20.75C20.75 7.89543 19.8545 7 18.75 7ZM20.75 5.53513C20.1616 5.19479 19.4785 5 18.75 5H14.75C14.0214 5 13.3383 5.19479 12.75 5.53513V5H10.75V9V9.83772L7.75 18.8377V27H9.75V24H23.75V27H25.75V18.8377L22.75 9.83772V9V5H20.75V5.53513ZM21.0292 11H12.4708L10.1374 18H23.3625L21.0292 11ZM23.75 20H9.75V22H23.75V20Z" fill="#1A1D21"/>
</svg>
