<svg width="33" height="32" viewBox="0 0 33 32" fill="none" xmlns="http://www.w3.org/2000/svg">
<path d="M17.25 4.5H15.25C12.49 4.5 10.25 6.74 10.25 9.5V10C10.25 10.55 10.7 11 11.25 11H12.25C12.8 11 13.25 10.55 13.25 10V9.495C13.25 8.395 14.145 7.5 15.245 7.495L17.245 7.49C18.35 7.49 19.25 8.385 19.25 9.49V11.495C19.25 12.6 18.355 13.495 17.255 13.495L14.245 13.5C12.035 13.505 10.25 15.295 10.25 17.5V25.5C10.25 26.605 11.145 27.5 12.25 27.5H20.25C21.355 27.5 22.25 26.605 22.25 25.5V9.5C22.25 6.74 20.01 4.5 17.25 4.5ZM14.515 16.44C14.96 15.885 15.765 15.855 16.25 16.35C16.735 15.855 17.54 15.885 17.985 16.44C18.38 16.93 18.295 17.655 17.855 18.105L16.61 19.385C16.41 19.585 16.09 19.585 15.89 19.385L14.645 18.105C14.205 17.655 14.12 16.93 14.515 16.44ZM18.75 25.5H13.75C13.475 25.5 13.25 25.275 13.25 25C13.25 24.725 13.475 24.5 13.75 24.5H18.75C19.025 24.5 19.25 24.725 19.25 25C19.25 25.275 19.025 25.5 18.75 25.5ZM18.75 23H13.75C13.475 23 13.25 22.775 13.25 22.5C13.25 22.225 13.475 22 13.75 22H18.75C19.025 22 19.25 22.225 19.25 22.5C19.25 22.775 19.025 23 18.75 23Z" fill="#1A1D21"/>
</svg>
