<svg width="33" height="32" viewBox="0 0 33 32" fill="none" xmlns="http://www.w3.org/2000/svg">
<path fill-rule="evenodd" clip-rule="evenodd" d="M15.158 9.34766C13.5509 9.34766 12.248 10.6505 12.248 12.2577V20.0177C12.248 20.5534 12.6823 20.9877 13.218 20.9877C13.7538 20.9877 14.188 20.5534 14.188 20.0177V17.1077H16.1324C16.3365 17.1064 16.5413 17.0824 16.7423 17.049C17.0785 16.9929 17.5418 16.8789 18.0168 16.6415C18.4957 16.402 19.004 16.0277 19.3904 15.448C19.781 14.8622 20.008 14.1248 20.008 13.2276C20.008 12.3304 19.781 11.593 19.3904 11.0072C19.004 10.4276 18.4956 10.0532 18.0168 9.81382C17.5418 9.57631 17.0785 9.46239 16.7423 9.40633C16.5401 9.37263 16.3334 9.34775 16.128 9.34766H15.158ZM14.188 15.1677V12.2577C14.188 11.7219 14.6223 11.2877 15.158 11.2877L16.1284 11.2878C16.4775 11.2995 16.8379 11.3933 17.1493 11.549C17.398 11.6733 17.6171 11.8446 17.7763 12.0834C17.9314 12.3161 18.068 12.6699 18.068 13.2276C18.068 13.7854 17.9314 14.1392 17.7763 14.3719C17.6171 14.6107 17.3979 14.7819 17.1493 14.9062C16.8379 15.0619 16.4775 15.1558 16.1283 15.1675L14.188 15.1677Z" fill="#1A1D21"/>
<path fill-rule="evenodd" clip-rule="evenodd" d="M25.1068 2.81836C27.0419 2.81836 28.6106 4.38707 28.6106 6.32216V25.0091C28.6106 26.9443 27.0419 28.5129 25.1068 28.5129H6.41982C4.48473 28.5129 2.91602 26.9443 2.91602 25.0091V6.32216C2.91602 4.38707 4.48473 2.81836 6.41982 2.81836H25.1068ZM25.1068 5.15423C25.7518 5.15423 26.2747 5.67713 26.2747 6.32216V25.0091C26.2747 25.6542 25.7518 26.177 25.1068 26.177H6.41982C5.77479 26.177 5.25188 25.6542 5.25188 25.0091V6.32216C5.25188 5.67713 5.77479 5.15423 6.41982 5.15423H25.1068Z" fill="#1A1D21"/>
</svg>
