<svg width="33" height="32" viewBox="0 0 33 32" fill="none" xmlns="http://www.w3.org/2000/svg">
<path d="M22.75 13V10C22.75 6.7 20.05 4 16.75 4C13.45 4 10.75 6.7 10.75 10V13C7.95 13 5.75 15.2 5.75 18C5.75 20.8 7.95 23 10.75 23H22.75C25.55 23 27.75 20.8 27.75 18C27.75 15.2 25.55 13 22.75 13Z" stroke="#1A1D21" stroke-width="2" stroke-miterlimit="10" stroke-linecap="round" stroke-linejoin="round"/>
<path d="M16.75 30V21.3C16.75 19.9 16.05 18.5 14.85 17.7C14.15 17.2 13.35 17 12.45 17H10.75" stroke="#1A1D21" stroke-width="2" stroke-miterlimit="10" stroke-linecap="round" stroke-linejoin="round"/>
<path d="M16.75 9V19" stroke="#1A1D21" stroke-width="2" stroke-miterlimit="10" stroke-linecap="round" stroke-linejoin="round"/>
<path d="M16.75 20H17.15C19.45 20 21.55 18.9 22.75 17" stroke="#1A1D21" stroke-width="2" stroke-miterlimit="10" stroke-linecap="round" stroke-linejoin="round"/>
</svg>
