<svg width="33" height="32" viewBox="0 0 33 32" fill="none" xmlns="http://www.w3.org/2000/svg">
<g clip-path="url(#clip0_1686_48944)">
<path d="M23.8997 0H13.2675H12.444L11.8618 0.582125L3.81259 8.63138L3.23047 9.2135V10.037V26.6316C3.23047 29.5916 5.63847 32.0001 8.59897 32.0001H23.8997C26.8597 32.0001 29.2677 29.5916 29.2677 26.6316V5.36844C29.2677 2.408 26.8597 0 23.8997 0ZM27.2799 26.6315C27.2799 28.4988 25.7665 30.0123 23.8997 30.0123H8.59897C6.73166 30.0123 5.21822 28.4988 5.21822 26.6315V10.0369H10.4505C12.0058 10.0369 13.2674 8.77575 13.2674 7.22006V1.98775H23.8997C25.7665 1.98775 27.2799 3.50112 27.2799 5.36844V26.6315Z" fill="#1A1D21"/>
<path d="M20.6608 13.2988H19.8212V14.1711H12.6793V13.2988H11.8397H10.9992H9.94922V23.2088H12.6793V22.3365H19.8212V23.2088H22.5513V13.2988H21.5013H20.6608ZM11.8397 22.3596H10.9992V21.0378H11.8397V22.3596ZM11.8397 20.0948H10.9992V18.773H11.8397V20.0948ZM11.8397 17.8295H10.9992V16.508H11.8397V17.8295ZM11.8397 15.5646H10.9992V14.2428H11.8397V15.5646ZM19.8212 21.3694H12.6793V15.1382H19.8212V21.3694ZM21.5013 22.3596H20.6608V21.0378H21.5013V22.3596ZM21.5013 20.0948H20.6608V18.773H21.5013V20.0948ZM21.5013 17.8295H20.6608V16.508H21.5013V17.8295ZM21.5013 15.5646H20.6608V14.2428H21.5013V15.5646Z" fill="#1A1D21"/>
</g>
<defs>
<clipPath id="clip0_1686_48944">
<rect width="32" height="32" fill="white" transform="translate(0.25)"/>
</clipPath>
</defs>
</svg>
