<svg width="33" height="32" viewBox="0 0 33 32" fill="none" xmlns="http://www.w3.org/2000/svg">
<path d="M2.52812 10.7664C1.97941 11.2575 1.93271 12.1004 2.42382 12.6492C2.91492 13.1979 3.75785 13.2446 4.30654 12.7534L2.52812 10.7664ZM29.1948 12.7534C29.7435 13.2446 30.5864 13.1979 31.0775 12.6492C31.5687 12.1004 31.5219 11.2575 30.9732 10.7664L29.1948 12.7534ZM16.7507 25.334C16.0143 25.334 15.4173 25.9309 15.4173 26.6673C15.4173 27.4037 16.0143 28.0006 16.7507 28.0006V25.334ZM16.764 28.0006C17.5004 28.0006 18.0973 27.4037 18.0973 26.6673C18.0973 25.9309 17.5004 25.334 16.764 25.334V28.0006ZM20.338 22.7206C20.8827 23.2161 21.726 23.1762 22.2215 22.6316C22.7171 22.0868 22.6771 21.2436 22.1324 20.748L20.338 22.7206ZM24.8225 17.7877C25.3672 18.2832 26.2105 18.2433 26.706 17.6985C27.2015 17.1538 27.1616 16.3105 26.6169 15.815L24.8225 17.7877ZM11.369 20.748C10.8242 21.2436 10.7843 22.0868 11.2798 22.6316C11.7753 23.1762 12.6186 23.2161 13.1633 22.7206L11.369 20.748ZM6.88445 15.815C6.33971 16.3105 6.2998 17.1538 6.7953 17.6985C7.29081 18.2433 8.13407 18.2832 8.67881 17.7877L6.88445 15.815ZM4.30654 12.7534C7.60991 9.79686 11.9689 8.00065 16.7507 8.00065V5.33398C11.2877 5.33398 6.30149 7.38916 2.52812 10.7664L4.30654 12.7534ZM16.7507 8.00065C21.5324 8.00065 25.8915 9.79686 29.1948 12.7534L30.9732 10.7664C27.1999 7.38916 22.2136 5.33398 16.7507 5.33398V8.00065ZM16.7507 28.0006H16.764V25.334H16.7507V28.0006ZM16.7507 21.334C18.1329 21.334 19.3897 21.8581 20.338 22.7206L22.1324 20.748C20.7124 19.4564 18.8221 18.6673 16.7507 18.6673V21.334ZM16.7507 14.6673C19.8599 14.6673 22.6901 15.848 24.8225 17.7877L26.6169 15.815C24.0128 13.4462 20.5489 12.0007 16.7507 12.0007V14.6673ZM13.1633 22.7206C14.1116 21.8581 15.3684 21.334 16.7507 21.334V18.6673C14.6792 18.6673 12.789 19.4564 11.369 20.748L13.1633 22.7206ZM8.67881 17.7877C10.8112 15.848 13.6415 14.6673 16.7507 14.6673V12.0007C12.9524 12.0007 9.48858 13.4462 6.88445 15.815L8.67881 17.7877Z" fill="#1A1D21"/>
</svg>
